<?xml version="1.0" encoding="UTF-8" standalone="no"?><!DOCTYPE svg PUBLIC "-//W3C//DTD SVG 1.1//EN" "http://www.w3.org/Graphics/SVG/1.1/DTD/svg11.dtd"><svg width="100%" height="100%" viewBox="0 0 2667 2000" version="1.1" xmlns="http://www.w3.org/2000/svg" xmlns:xlink="http://www.w3.org/1999/xlink" xml:space="preserve" xmlns:serif="http://www.serif.com/" style="fill-rule:evenodd;clip-rule:evenodd;"><path d="M0,0l2666.67,0l-0,2000l-2666.67,0" style="fill:#bd3d44;fill-rule:nonzero;"/><path d="M0,230.417l2666.67,-0m-2666.67,307.083l2666.67,0m-2666.67,308.333l2666.67,0m-2666.67,308.334l2666.67,-0m-2666.67,308.333l2666.67,-0m-2666.67,308.333l2666.67,0" style="fill-rule:nonzero;stroke:#fff;stroke-width:154.17px;"/><path d="M0,0l1520,0l0,1077.08l-1520,0" style="fill:#192f5d;fill-rule:nonzero;"/><g><g id="s18"><g id="s9"><g id="s5"><g id="s4"><path id="s" d="M120.986,39.482l36.467,112.234l-95.472,-69.364l118.01,-0l-95.472,69.364l36.467,-112.234Z" style="fill:#fff;fill-rule:nonzero;"/><path id="s1" serif:id="s" d="M120.986,256.627l36.467,112.234l-95.472,-69.364l118.01,-0l-95.472,69.364l36.467,-112.234Z" style="fill:#fff;fill-rule:nonzero;"/><path id="s2" serif:id="s" d="M120.986,473.772l36.467,112.234l-95.472,-69.364l118.01,-0l-95.472,69.364l36.467,-112.234Z" style="fill:#fff;fill-rule:nonzero;"/><path id="s3" serif:id="s" d="M120.986,690.917l36.467,112.234l-95.472,-69.364l118.01,-0l-95.472,69.364l36.467,-112.234Z" style="fill:#fff;fill-rule:nonzero;"/></g><path id="s6" serif:id="s" d="M120.986,908.062l36.467,112.234l-95.472,-69.364l118.01,-0l-95.472,69.364l36.467,-112.234Z" style="fill:#fff;fill-rule:nonzero;"/></g><g id="s41" serif:id="s4"><path id="s7" serif:id="s" d="M248.688,148.055l36.467,112.234l-95.472,-69.365l118.01,0l-95.472,69.365l36.467,-112.234Z" style="fill:#fff;fill-rule:nonzero;"/><path id="s8" serif:id="s" d="M248.688,365.2l36.467,112.234l-95.472,-69.365l118.01,0l-95.472,69.365l36.467,-112.234Z" style="fill:#fff;fill-rule:nonzero;"/><path id="s10" serif:id="s" d="M248.688,582.345l36.467,112.234l-95.472,-69.365l118.01,0l-95.472,69.365l36.467,-112.234Z" style="fill:#fff;fill-rule:nonzero;"/><path id="s11" serif:id="s" d="M248.688,799.49l36.467,112.234l-95.472,-69.365l118.01,0l-95.472,69.365l36.467,-112.234Z" style="fill:#fff;fill-rule:nonzero;"/></g></g><g id="s91" serif:id="s9"><g id="s51" serif:id="s5"><g id="s42" serif:id="s4"><path id="s12" serif:id="s" d="M376.39,39.482l36.467,112.234l-95.472,-69.364l118.01,-0l-95.472,69.364l36.467,-112.234Z" style="fill:#fff;fill-rule:nonzero;"/><path id="s13" serif:id="s" d="M376.39,256.627l36.467,112.234l-95.472,-69.364l118.01,-0l-95.472,69.364l36.467,-112.234Z" style="fill:#fff;fill-rule:nonzero;"/><path id="s14" serif:id="s" d="M376.39,473.772l36.467,112.234l-95.472,-69.364l118.01,-0l-95.472,69.364l36.467,-112.234Z" style="fill:#fff;fill-rule:nonzero;"/><path id="s15" serif:id="s" d="M376.39,690.917l36.467,112.234l-95.472,-69.364l118.01,-0l-95.472,69.364l36.467,-112.234Z" style="fill:#fff;fill-rule:nonzero;"/></g><path id="s16" serif:id="s" d="M376.39,908.062l36.467,112.234l-95.472,-69.364l118.01,-0l-95.472,69.364l36.467,-112.234Z" style="fill:#fff;fill-rule:nonzero;"/></g><g id="s43" serif:id="s4"><path id="s17" serif:id="s" d="M504.092,148.055l36.467,112.234l-95.472,-69.365l118.01,0l-95.472,69.365l36.467,-112.234Z" style="fill:#fff;fill-rule:nonzero;"/><path id="s19" serif:id="s" d="M504.092,365.2l36.467,112.234l-95.472,-69.365l118.01,0l-95.472,69.365l36.467,-112.234Z" style="fill:#fff;fill-rule:nonzero;"/><path id="s20" serif:id="s" d="M504.092,582.345l36.467,112.234l-95.472,-69.365l118.01,0l-95.472,69.365l36.467,-112.234Z" style="fill:#fff;fill-rule:nonzero;"/><path id="s21" serif:id="s" d="M504.092,799.49l36.467,112.234l-95.472,-69.365l118.01,0l-95.472,69.365l36.467,-112.234Z" style="fill:#fff;fill-rule:nonzero;"/></g></g></g><g id="s181" serif:id="s18"><g id="s92" serif:id="s9"><g id="s52" serif:id="s5"><g id="s44" serif:id="s4"><path id="s22" serif:id="s" d="M631.794,39.482l36.467,112.234l-95.472,-69.364l118.01,-0l-95.472,69.364l36.467,-112.234Z" style="fill:#fff;fill-rule:nonzero;"/><path id="s23" serif:id="s" d="M631.794,256.627l36.467,112.234l-95.472,-69.364l118.01,-0l-95.472,69.364l36.467,-112.234Z" style="fill:#fff;fill-rule:nonzero;"/><path id="s24" serif:id="s" d="M631.794,473.772l36.467,112.234l-95.472,-69.364l118.01,-0l-95.472,69.364l36.467,-112.234Z" style="fill:#fff;fill-rule:nonzero;"/><path id="s25" serif:id="s" d="M631.794,690.917l36.467,112.234l-95.472,-69.364l118.01,-0l-95.472,69.364l36.467,-112.234Z" style="fill:#fff;fill-rule:nonzero;"/></g><path id="s26" serif:id="s" d="M631.794,908.062l36.467,112.234l-95.472,-69.364l118.01,-0l-95.472,69.364l36.467,-112.234Z" style="fill:#fff;fill-rule:nonzero;"/></g><g id="s45" serif:id="s4"><path id="s27" serif:id="s" d="M759.496,148.055l36.467,112.234l-95.472,-69.365l118.01,0l-95.472,69.365l36.467,-112.234Z" style="fill:#fff;fill-rule:nonzero;"/><path id="s28" serif:id="s" d="M759.496,365.2l36.467,112.234l-95.472,-69.365l118.01,0l-95.472,69.365l36.467,-112.234Z" style="fill:#fff;fill-rule:nonzero;"/><path id="s29" serif:id="s" d="M759.496,582.345l36.467,112.234l-95.472,-69.365l118.01,0l-95.472,69.365l36.467,-112.234Z" style="fill:#fff;fill-rule:nonzero;"/><path id="s30" serif:id="s" d="M759.496,799.49l36.467,112.234l-95.472,-69.365l118.01,0l-95.472,69.365l36.467,-112.234Z" style="fill:#fff;fill-rule:nonzero;"/></g></g><g id="s93" serif:id="s9"><g id="s53" serif:id="s5"><g id="s46" serif:id="s4"><path id="s31" serif:id="s" d="M887.198,39.482l36.467,112.234l-95.472,-69.364l118.01,-0l-95.472,69.364l36.467,-112.234Z" style="fill:#fff;fill-rule:nonzero;"/><path id="s32" serif:id="s" d="M887.198,256.627l36.467,112.234l-95.472,-69.364l118.01,-0l-95.472,69.364l36.467,-112.234Z" style="fill:#fff;fill-rule:nonzero;"/><path id="s33" serif:id="s" d="M887.198,473.772l36.467,112.234l-95.472,-69.364l118.01,-0l-95.472,69.364l36.467,-112.234Z" style="fill:#fff;fill-rule:nonzero;"/><path id="s34" serif:id="s" d="M887.198,690.917l36.467,112.234l-95.472,-69.364l118.01,-0l-95.472,69.364l36.467,-112.234Z" style="fill:#fff;fill-rule:nonzero;"/></g><path id="s35" serif:id="s" d="M887.198,908.062l36.467,112.234l-95.472,-69.364l118.01,-0l-95.472,69.364l36.467,-112.234Z" style="fill:#fff;fill-rule:nonzero;"/></g><g id="s47" serif:id="s4"><path id="s36" serif:id="s" d="M1014.9,148.055l36.467,112.234l-95.472,-69.365l118.01,0l-95.472,69.365l36.467,-112.234Z" style="fill:#fff;fill-rule:nonzero;"/><path id="s37" serif:id="s" d="M1014.9,365.2l36.467,112.234l-95.472,-69.365l118.01,0l-95.472,69.365l36.467,-112.234Z" style="fill:#fff;fill-rule:nonzero;"/><path id="s38" serif:id="s" d="M1014.9,582.345l36.467,112.234l-95.472,-69.365l118.01,0l-95.472,69.365l36.467,-112.234Z" style="fill:#fff;fill-rule:nonzero;"/><path id="s39" serif:id="s" d="M1014.9,799.49l36.467,112.234l-95.472,-69.365l118.01,0l-95.472,69.365l36.467,-112.234Z" style="fill:#fff;fill-rule:nonzero;"/></g></g></g><g id="s94" serif:id="s9"><g id="s54" serif:id="s5"><g id="s48" serif:id="s4"><path id="s40" serif:id="s" d="M1142.6,39.482l36.467,112.234l-95.472,-69.364l118.01,-0l-95.472,69.364l36.467,-112.234Z" style="fill:#fff;fill-rule:nonzero;"/><path id="s49" serif:id="s" d="M1142.6,256.627l36.467,112.234l-95.472,-69.364l118.01,-0l-95.472,69.364l36.467,-112.234Z" style="fill:#fff;fill-rule:nonzero;"/><path id="s50" serif:id="s" d="M1142.6,473.772l36.467,112.234l-95.472,-69.364l118.01,-0l-95.472,69.364l36.467,-112.234Z" style="fill:#fff;fill-rule:nonzero;"/><path id="s55" serif:id="s" d="M1142.6,690.917l36.467,112.234l-95.472,-69.364l118.01,-0l-95.472,69.364l36.467,-112.234Z" style="fill:#fff;fill-rule:nonzero;"/></g><path id="s56" serif:id="s" d="M1142.6,908.062l36.467,112.234l-95.472,-69.364l118.01,-0l-95.472,69.364l36.467,-112.234Z" style="fill:#fff;fill-rule:nonzero;"/></g><g id="s410" serif:id="s4"><path id="s57" serif:id="s" d="M1270.3,148.055l36.467,112.234l-95.472,-69.365l118.01,0l-95.472,69.365l36.467,-112.234Z" style="fill:#fff;fill-rule:nonzero;"/><path id="s58" serif:id="s" d="M1270.3,365.2l36.467,112.234l-95.472,-69.365l118.01,0l-95.472,69.365l36.467,-112.234Z" style="fill:#fff;fill-rule:nonzero;"/><path id="s59" serif:id="s" d="M1270.3,582.345l36.467,112.234l-95.472,-69.365l118.01,0l-95.472,69.365l36.467,-112.234Z" style="fill:#fff;fill-rule:nonzero;"/><path id="s60" serif:id="s" d="M1270.3,799.49l36.467,112.234l-95.472,-69.365l118.01,0l-95.472,69.365l36.467,-112.234Z" style="fill:#fff;fill-rule:nonzero;"/></g></g><g id="s510" serif:id="s5"><g id="s411" serif:id="s4"><path id="s61" serif:id="s" d="M1398.01,39.482l36.467,112.234l-95.472,-69.364l118.01,-0l-95.472,69.364l36.467,-112.234Z" style="fill:#fff;fill-rule:nonzero;"/><path id="s62" serif:id="s" d="M1398.01,256.627l36.467,112.234l-95.472,-69.364l118.01,-0l-95.472,69.364l36.467,-112.234Z" style="fill:#fff;fill-rule:nonzero;"/><path id="s63" serif:id="s" d="M1398.01,473.772l36.467,112.234l-95.472,-69.364l118.01,-0l-95.472,69.364l36.467,-112.234Z" style="fill:#fff;fill-rule:nonzero;"/><path id="s64" serif:id="s" d="M1398.01,690.917l36.467,112.234l-95.472,-69.364l118.01,-0l-95.472,69.364l36.467,-112.234Z" style="fill:#fff;fill-rule:nonzero;"/></g><path id="s65" serif:id="s" d="M1398.01,908.062l36.467,112.234l-95.472,-69.364l118.01,-0l-95.472,69.364l36.467,-112.234Z" style="fill:#fff;fill-rule:nonzero;"/></g></g><path d="M0,0l66.667,45.833l1266.67,0l-1137.5,108.334l1012.5,-0l-1141.67,108.333l1266.67,0l-1137.5,108.333l1012.5,0l-1141.67,108.334l1266.67,-0l-1137.5,108.333l1012.5,0l-1141.67,104.167l1266.67,-0l-1137.5,108.333l1012.5,0l-1141.67,108.333l1266.67,0l-1333.33,-908.333Z" style="fill:none;fill-rule:nonzero;"/></svg>